<svg width="52" height="70" viewBox="0 0 52 70" fill="none" xmlns="http://www.w3.org/2000/svg">
<path d="M26.6146 27.5889L27.4663 27.9811L28.3008 28.4079C30.7865 29.7221 33.0684 31.4354 35.0666 33.488L35.7163 34.181L36.3508 34.9023C37.8873 36.7016 39.1948 38.709 40.2395 40.8726L40.3805 41.2465L40.4987 41.6204L40.6073 41.9861L40.7483 42.3418C41.1737 43.2767 41.9088 44.0105 42.8116 44.4016C43.7145 44.7926 44.7211 44.8131 45.6373 44.4592L45.9707 44.3088L46.2889 44.13C47.1813 43.5693 47.8305 42.6561 48.0958 41.5884C48.3612 40.5207 48.2213 39.3844 47.7065 38.4259L47.5159 38.0968L47.2987 37.794L46.6738 37.0381C44.2396 34.1838 41.2944 31.878 38.0117 30.2566C34.729 28.6351 31.1751 27.7309 27.5597 27.5971L26.6146 27.5889Z" fill="#FFBE0A"/>
<path d="M47.3959 19.3245L47.7541 19.3692L48.1047 19.4586C49.1006 19.7457 49.9502 20.4402 50.4689 21.3914C50.9876 22.3426 51.1335 23.4736 50.875 24.5388L50.7664 24.9086L50.633 25.2561C50.225 26.192 49.5074 26.9344 48.6179 27.3409C47.7283 27.7474 46.7294 27.7894 45.8126 27.4589L45.4791 27.3146L45.161 27.1459L44.8447 26.9692L44.5112 26.8269L44.1778 26.7009L43.2842 26.4347C37.8572 24.9104 32.1206 25.2178 26.8642 27.3146L26.0049 27.6804L26.6813 26.9854C29.3274 24.3535 32.4406 22.3128 35.8374 20.9835C39.2343 19.6542 42.8461 19.0632 46.4604 19.2453L47.413 19.3062" fill="#FFBE0A"/>
<path d="M25.9973 27.6804L26.365 26.772L26.7651 25.882C28.0014 23.231 29.611 20.7975 31.538 18.6661L32.1896 17.9732L32.8641 17.2965C34.557 15.6658 36.4382 14.272 38.4619 13.1491L38.8125 12.9987L39.163 12.8829L39.5136 12.7589L39.8394 12.6065C40.717 12.1561 41.4062 11.3738 41.7731 10.4116C42.14 9.44944 42.1584 8.37616 41.8248 7.40033L41.6838 7.04472L41.5161 6.70739C40.9913 5.75477 40.1357 5.06093 39.1348 4.77607C38.1338 4.49121 37.0679 4.63825 36.1679 5.18538L35.8592 5.38858L35.5753 5.62837L34.8665 6.28676C32.1911 8.88353 30.0296 12.0248 28.5094 15.5258C26.9892 19.0267 26.1409 22.8166 26.0144 26.6725L25.9973 27.6804Z" fill="#FFBE0A"/>
<path d="M25.9973 27.6804L25.3476 26.959L24.7131 26.2132L24.1129 25.4471C21.5363 22.0546 19.7125 18.0845 18.778 13.8339L18.578 12.8565L18.4122 11.8689L18.277 10.8711L18.1855 9.87134L18.1188 8.86547L18.0769 7.86975V6.86388L18.1017 5.85801L18.1607 4.86026L18.2103 4.47823L18.2846 4.10433L18.4027 3.73043L18.5437 3.38498L18.7114 3.04563L18.9019 2.72456L19.1267 2.42381L19.3763 2.14745C20.018 1.50122 20.8445 1.10334 21.7234 1.01752C22.6022 0.931697 23.4827 1.1629 24.2238 1.67412C24.9648 2.18533 25.5236 2.94697 25.8106 3.83708C26.0976 4.72718 26.0963 5.69427 25.8068 6.58346L25.6734 6.93907L25.5076 7.28655L25.3323 7.64216L25.1894 8.00591L25.0656 8.37981L24.8236 9.33285C23.4124 15.0968 23.7066 21.1852 25.6658 26.7639L25.9973 27.6804Z" fill="#FFBE0A"/>
<path d="M7.90632 26.6745L7.55765 26.8086L7.20707 26.959L6.88126 27.1459L6.55545 27.3248L6.22202 27.467C5.24307 27.8253 4.17136 27.7595 3.23745 27.2837C2.30353 26.8079 1.58204 25.9602 1.22819 24.9229L1.1272 24.549L1.0529 24.1751C0.89384 23.1506 1.09638 22.0997 1.62141 21.2253C2.14643 20.3508 2.95668 19.7149 3.89563 19.4403L4.25383 19.3611L4.61393 19.3062L5.54754 19.2453C9.16245 19.0623 12.7751 19.6529 16.1727 20.9822C19.5703 22.3115 22.684 24.3527 25.3304 26.9854L26.0049 27.6804L25.1456 27.3146C19.9145 25.227 14.2065 24.9134 8.80182 26.4164L7.90632 26.6745Z" fill="#FFBE0A"/>
<path d="M5.32843 37.8956L5.1036 38.1984L4.91307 38.5276C4.43019 39.4277 4.27727 40.4867 4.48383 41.5C4.6904 42.5134 5.2418 43.4091 6.03149 44.0142L6.33253 44.2174L6.65834 44.3941C7.59486 44.8642 8.66737 44.9215 9.64325 44.5536C10.6191 44.1858 11.4197 43.4224 11.8713 42.4291L12.0142 42.0735L12.1304 41.7078L12.239 41.3339L12.3819 40.9599C13.571 38.5036 15.0947 36.2486 16.9032 34.2684L17.5529 33.5754L18.2293 32.8987C20.063 31.1373 22.1144 29.6522 24.3263 28.4851L25.1609 28.0583L26.003 27.6662L25.0618 27.6845C21.4461 27.8187 17.8921 28.7231 14.6092 30.3445C11.3262 31.9659 8.38056 34.2715 5.94575 37.1254L5.32843 37.8956Z" fill="#FFBE0A"/>
<path d="M25.0618 46.981L25.1856 47.3549L25.3285 47.7186L25.5038 48.0763L25.6696 48.4217L25.803 48.7773C26.1396 49.8219 26.0782 50.9657 25.6321 51.9626C25.186 52.9594 24.3907 53.7296 23.4175 54.1074L23.0669 54.2151L22.7163 54.2944C21.7539 54.4624 20.7672 54.2437 19.9472 53.6806C19.1271 53.1176 18.532 52.2502 18.277 51.2463L18.2026 50.8724L18.1531 50.4904L18.094 49.4926C17.9224 45.6373 18.4762 41.7844 19.723 38.1611C20.9697 34.5377 22.8841 31.2173 25.3533 28.3957L26.003 27.6743L25.662 28.5907C23.7028 34.1695 23.4086 40.2579 24.8198 46.0218L25.0618 46.981Z" fill="#FFBE0A"/>
<path d="M25.9973 68.5676L26.6565 67.8381C31.3337 62.4867 33.9345 55.4429 33.9345 48.1271C33.9345 40.8112 31.3337 33.7675 26.6565 28.416L25.9973 27.6804M25.9973 27.6804L26.365 26.772L26.7651 25.882C28.0014 23.231 29.611 20.7975 31.538 18.6661L32.1896 17.9732L32.8641 17.2965C34.557 15.6658 36.4382 14.272 38.4619 13.1491L38.8125 12.9987L39.163 12.8829L39.5136 12.7589L39.8394 12.6065C40.717 12.1561 41.4062 11.3738 41.7731 10.4116C42.14 9.44944 42.1584 8.37616 41.8248 7.40033L41.6838 7.04472L41.5161 6.70739C40.9913 5.75477 40.1358 5.06093 39.1348 4.77607C38.1338 4.49121 37.0679 4.63825 36.1679 5.18538L35.8592 5.38858L35.5753 5.62837L34.8665 6.28676C32.1911 8.88353 30.0296 12.0248 28.5094 15.5258C26.9892 19.0267 26.1409 22.8166 26.0144 26.6725L25.9973 27.6804ZM25.9973 27.6804L25.3476 26.959L24.7131 26.2132L24.1129 25.4471C21.5363 22.0546 19.7125 18.0845 18.778 13.8339L18.578 12.8565L18.4122 11.8689L18.277 10.8711L18.1855 9.87134L18.1188 8.86547L18.0769 7.86975V6.86388L18.1017 5.85801L18.1607 4.86026L18.2103 4.47823L18.2846 4.10433L18.4027 3.73043L18.5437 3.38498L18.7114 3.04563L18.9019 2.72456L19.1267 2.42381L19.3763 2.14745C20.018 1.50122 20.8445 1.10334 21.7234 1.01752C22.6022 0.931697 23.4827 1.1629 24.2238 1.67412C24.9648 2.18533 25.5236 2.94697 25.8106 3.83708C26.0976 4.72718 26.0963 5.69427 25.8068 6.58346L25.6734 6.93907L25.5076 7.28655L25.3323 7.64216L25.1894 8.00591L25.0656 8.37981L24.8236 9.33285C23.4124 15.0968 23.7066 21.1852 25.6658 26.7639L25.9973 27.6804ZM47.3959 19.3245L47.7541 19.3692L48.1047 19.4586C49.1006 19.7457 49.9502 20.4402 50.4689 21.3914C50.9876 22.3426 51.1335 23.4736 50.875 24.5388L50.7664 24.9086L50.633 25.2561C50.225 26.192 49.5074 26.9344 48.6179 27.3409C47.7283 27.7474 46.7294 27.7894 45.8126 27.4589L45.4791 27.3146L45.161 27.1459L44.8447 26.9692L44.5113 26.8269L44.1778 26.7009L43.2842 26.4347C37.8572 24.9104 32.1206 25.2178 26.8642 27.3146L26.0049 27.6804M26.0049 27.6804L26.6813 26.9854C29.3274 24.3535 32.4406 22.3128 35.8374 20.9835C39.2343 19.6542 42.8461 19.0632 46.4604 19.2453L47.413 19.3062M26.0049 27.6804L25.3304 26.9854C22.684 24.3527 19.5703 22.3115 16.1727 20.9822C12.7751 19.6529 9.16245 19.0623 5.54754 19.2453L4.61393 19.3062L4.25383 19.3611L3.89563 19.4403C2.95668 19.7149 2.14643 20.3508 1.62141 21.2253C1.09638 22.0997 0.89384 23.1506 1.0529 24.1751L1.1272 24.549L1.22819 24.9229C1.58204 25.9602 2.30353 26.8079 3.23745 27.2837C4.17136 27.7595 5.24307 27.8253 6.22202 27.467L6.55545 27.3248L6.88126 27.1459L7.20707 26.959L7.55765 26.8086L7.90632 26.6745L8.80182 26.4164C14.2065 24.9134 19.9145 25.227 25.1456 27.3146L26.0049 27.6804ZM26.6146 27.5889L27.4663 27.9811L28.3008 28.4079C30.7865 29.7221 33.0684 31.4354 35.0666 33.488L35.7163 34.181L36.3508 34.9023C37.8873 36.7016 39.1948 38.709 40.2395 40.8726L40.3805 41.2465L40.4987 41.6204L40.6073 41.9861L40.7483 42.3418C41.1737 43.2767 41.9088 44.0105 42.8116 44.4016C43.7145 44.7926 44.7211 44.8131 45.6373 44.4592L45.9707 44.3088L46.2889 44.13C47.1813 43.5693 47.8305 42.6561 48.0958 41.5884C48.3612 40.5207 48.2213 39.3844 47.7065 38.4259L47.5159 38.0968L47.2987 37.794L46.6738 37.0381C44.2396 34.1838 41.2944 31.878 38.0117 30.2566C34.7289 28.6351 31.1751 27.7309 27.5597 27.5971L26.6146 27.5889ZM5.32843 37.8956L5.1036 38.1984L4.91307 38.5276C4.43019 39.4277 4.27727 40.4867 4.48383 41.5C4.6904 42.5134 5.2418 43.4091 6.03149 44.0142L6.33253 44.2174L6.65834 44.3942C7.59486 44.8642 8.66737 44.9215 9.64325 44.5536C10.6191 44.1858 11.4197 43.4224 11.8713 42.4291L12.0142 42.0735L12.1304 41.7078L12.239 41.3339L12.3819 40.9599C13.571 38.5036 15.0947 36.2486 16.9032 34.2684L17.5529 33.5754L18.2293 32.8987C20.063 31.1373 22.1144 29.6522 24.3263 28.4851L25.1609 28.0583L26.003 27.6662L25.0618 27.6845C21.4461 27.8187 17.8921 28.7231 14.6092 30.3445C11.3262 31.9659 8.38056 34.2715 5.94575 37.1254L5.32843 37.8956ZM25.0618 46.981L25.1856 47.3549L25.3285 47.7186L25.5038 48.0763L25.6696 48.4217L25.803 48.7773C26.1396 49.8219 26.0782 50.9657 25.6321 51.9626C25.186 52.9594 24.3907 53.7296 23.4175 54.1074L23.0669 54.2151L22.7163 54.2944C21.7539 54.4624 20.7672 54.2437 19.9472 53.6807C19.1271 53.1176 18.532 52.2502 18.277 51.2463L18.2026 50.8724L18.1531 50.4904L18.094 49.4926C17.9224 45.6373 18.4762 41.7844 19.723 38.1611C20.9697 34.5377 22.8841 31.2173 25.3533 28.3957L26.003 27.6743L25.662 28.5907C23.7028 34.1695 23.4086 40.2579 24.8198 46.0218L25.0618 46.981Z" stroke="black" stroke-linecap="round" stroke-linejoin="round"/>
</svg>
